<svg id="Í_ã_1" data-name="Í¼²ã_1" xmlns="http://www.w3.org/2000/svg" xmlns:xlink="http://www.w3.org/1999/xlink" viewBox="0 0 331.99 94.09"><defs><style>.cls-1{fill:#182a88;}.cls-2{fill:#056fb8;}.cls-3{fill:url(#radial-gradient);}.cls-4{fill:url(#radial-gradient-2);}.cls-5{fill:url(#radial-gradient-3);}.cls-6{fill:url(#radial-gradient-4);}.cls-7{fill:url(#radial-gradient-5);}.cls-8{fill:url(#radial-gradient-6);}.cls-9{fill:url(#radial-gradient-7);}.cls-10{fill:url(#radial-gradient-8);}.cls-11{fill:url(#radial-gradient-9);}.cls-12{fill:url(#radial-gradient-11);}.cls-13{fill:url(#radial-gradient-14);}.cls-14{fill:url(#radial-gradient-16);}.cls-15{fill:url(#radial-gradient-17);}.cls-16{fill:url(#radial-gradient-18);}</style><radialGradient id="radial-gradient" cx="171.16" cy="148.43" r="91.5" gradientUnits="userSpaceOnUse"><stop offset="0" stop-color="#e61773"/><stop offset="0.37" stop-color="#6a2885"/><stop offset="0.71" stop-color="#056fb8"/><stop offset="1" stop-color="#47a9e0"/></radialGradient><radialGradient id="radial-gradient-2" cx="171.16" cy="148.43" r="91.5" xlink:href="#radial-gradient"/><radialGradient id="radial-gradient-3" cx="171.16" cy="148.43" r="91.5" xlink:href="#radial-gradient"/><radialGradient id="radial-gradient-4" cx="171.16" cy="148.43" r="91.5" xlink:href="#radial-gradient"/><radialGradient id="radial-gradient-5" cx="171.16" cy="148.43" r="91.5" xlink:href="#radial-gradient"/><radialGradient id="radial-gradient-6" cx="171.16" cy="148.43" r="91.5" xlink:href="#radial-gradient"/><radialGradient id="radial-gradient-7" cx="171.16" cy="148.43" r="91.5" xlink:href="#radial-gradient"/><radialGradient id="radial-gradient-8" cx="171.16" cy="148.43" r="91.5" xlink:href="#radial-gradient"/><radialGradient id="radial-gradient-9" cx="171.16" cy="148.43" r="91.5" xlink:href="#radial-gradient"/><radialGradient id="radial-gradient-11" cx="171.16" cy="148.43" r="91.5" xlink:href="#radial-gradient"/><radialGradient id="radial-gradient-14" cx="171.16" cy="148.43" r="91.5" xlink:href="#radial-gradient"/><radialGradient id="radial-gradient-16" cx="171.16" cy="148.43" r="91.5" xlink:href="#radial-gradient"/><radialGradient id="radial-gradient-17" cx="171.16" cy="148.43" r="91.5" xlink:href="#radial-gradient"/><radialGradient id="radial-gradient-18" cx="171.16" cy="148.43" r="91.5" xlink:href="#radial-gradient"/></defs><title>export to svg</title><path class="cls-1" d="M272.69,154.54a6.78,6.78,0,0,1,.57,2.36,1,1,0,0,1-.1.44l-17.65,24.48h16.43a1,1,0,0,1,1,.51,3.37,3.37,0,0,1,.3,1.63v1.12a3.39,3.39,0,0,1-.3,1.64,1,1,0,0,1-1,.51H248.29c-.35,0-.72-.46-1.09-1.37a6.23,6.23,0,0,1-.56-2.34,1.78,1.78,0,0,1,.09-.53l17.7-24.48h-15a1.08,1.08,0,0,1-1-.51,3.1,3.1,0,0,1-.32-1.63v-1.12a3.14,3.14,0,0,1,.32-1.64,1.08,1.08,0,0,1,1-.51H271.7Q272.14,153.1,272.69,154.54Z" transform="translate(-131.64 -129.87)"/><path class="cls-1" d="M318,154.13l-.1.68-8.14,31.59c-.06.29-.32.52-.75.68a4.84,4.84,0,0,1-1.64.25h-3a4.77,4.77,0,0,1-1.63-.25,1.06,1.06,0,0,1-.76-.68l-4.48-17.94-.88-4.44-.88,4.44-4.58,17.94a1.21,1.21,0,0,1-.81.68,4.77,4.77,0,0,1-1.63.25h-2.92c-1.5,0-2.31-.31-2.44-.93l-8-31.59a5,5,0,0,1-.1-.68c0-.75.9-1.13,2.68-1.13h1c1.66,0,2.58.43,2.78,1.27l4.58,18.67.88,4.05.44,2.1c.23-1.24.71-3.3,1.46-6.19L293.78,154c.16-.65,1-1,2.39-1h1.46c1.46,0,2.28.33,2.44,1l4.63,19,.83,3.71.54,2.58.68-3,.78-3.37,4.58-18.67c.2-.84,1.12-1.27,2.78-1.27h.44C317.12,153,318,153.38,318,154.13Z" transform="translate(-131.64 -129.87)"/><path class="cls-1" d="M345.73,154.54a7,7,0,0,1,.56,2.36,1,1,0,0,1-.1.44l-17.65,24.48H345a1,1,0,0,1,1,.51,3.51,3.51,0,0,1,.29,1.63v1.12a3.53,3.53,0,0,1-.29,1.64,1,1,0,0,1-1,.51H321.33c-.36,0-.73-.46-1.1-1.37a6.23,6.23,0,0,1-.56-2.34,1.54,1.54,0,0,1,.1-.53l17.69-24.48h-15a1.08,1.08,0,0,1-1-.51,3.2,3.2,0,0,1-.32-1.63v-1.12a3.24,3.24,0,0,1,.32-1.64,1.08,1.08,0,0,1,1-.51h22.28C345,153.1,345.35,153.58,345.73,154.54Z" transform="translate(-131.64 -129.87)"/><path class="cls-1" d="M374,153.61a3.38,3.38,0,0,1,.29,1.59v1.22A3.36,3.36,0,0,1,374,158a1,1,0,0,1-1,.51h-8.28V186c0,.91-.87,1.37-2.59,1.37H361c-1.72,0-2.58-.46-2.58-1.37V158.51H350a1,1,0,0,1-1-.51,3.22,3.22,0,0,1-.3-1.58V155.2a3.24,3.24,0,0,1,.3-1.59,1,1,0,0,1,1-.51h23A1,1,0,0,1,374,153.61Z" transform="translate(-131.64 -129.87)"/><path class="cls-1" d="M399.11,153.59a3.06,3.06,0,0,1,.32,1.61v1.22a3.11,3.11,0,0,1-.32,1.61,1.11,1.11,0,0,1-1,.48h-13v8.54h11.61a1,1,0,0,1,1,.48,3.24,3.24,0,0,1,.29,1.61v1.22a3.24,3.24,0,0,1-.29,1.61,1,1,0,0,1-1,.49H385.14v9.36h13a1.09,1.09,0,0,1,1,.49,3,3,0,0,1,.32,1.6v1.22a3.06,3.06,0,0,1-.32,1.61,1.09,1.09,0,0,1-1,.49h-17.6a1.5,1.5,0,0,1-1.75-1.76V154.86a1.5,1.5,0,0,1,1.75-1.76h17.55A1.09,1.09,0,0,1,399.11,153.59Z" transform="translate(-131.64 -129.87)"/><path class="cls-1" d="M424.61,153.2a15,15,0,0,1,3.83,1.19c1,.51,1.51,1.05,1.51,1.64a3.86,3.86,0,0,1-.46,1.53,7.82,7.82,0,0,1-1.08,1.68c-.4.49-.77.74-1.09.74a5.85,5.85,0,0,1-1.2-.52,13.73,13.73,0,0,0-2.56-.9,14.35,14.35,0,0,0-3.56-.39c-3.25,0-5.65,1-7.19,3s-2.31,5-2.31,9,.77,7,2.31,9,3.89,3,7.05,3a13.76,13.76,0,0,0,3.9-.49,21.84,21.84,0,0,0,3.21-1.22,3.22,3.22,0,0,1,1-.39,1.59,1.59,0,0,1,1.12.71,6.63,6.63,0,0,1,1,1.61,3.86,3.86,0,0,1,.39,1.34c0,.75-.55,1.41-1.65,2a15.19,15.19,0,0,1-4.12,1.36,24.56,24.56,0,0,1-4.85.49q-8.14,0-12-4.24T404,170.12q0-17.35,16.09-17.36A24.61,24.61,0,0,1,424.61,153.2Z" transform="translate(-131.64 -129.87)"/><path class="cls-1" d="M463.64,154.37V186c0,.91-.87,1.37-2.59,1.37h-1.22c-1.72,0-2.58-.46-2.58-1.37V172.51H442.48V186c0,.91-.86,1.37-2.59,1.37h-1.22c-1.72,0-2.58-.46-2.58-1.37V154.37c0-.91.86-1.37,2.58-1.37h1.22c1.73,0,2.59.46,2.59,1.37v12.68h14.77V154.37c0-.91.86-1.37,2.58-1.37h1.22C462.77,153,463.64,153.46,463.64,154.37Z" transform="translate(-131.64 -129.87)"/><path class="cls-2" d="M354,202.63h-5.53v-1.15H354v-1h-4.24a.27.27,0,0,1-.3-.31v-4.55a.27.27,0,0,1,.3-.31h3.87v-3.11h1.15V193h5.28V194h-5.28v1.23h4.65a.28.28,0,0,1,.31.31v4.55a.28.28,0,0,1-.31.31h-4.29v1h5.51v1.15h-5.51v2.06H354Zm-3.39-5.34h8v-.87s0,0-.05,0h-7.89s-.05,0,0,0Zm8,1.09h-8v.9l0,.06h7.89l.05-.06Z" transform="translate(-131.64 -129.87)"/><path class="cls-2" d="M375.49,203.18V204H374.4V193.3a.31.31,0,0,1,.33-.35h2.74a.32.32,0,0,1,.35.36v2.61a6.79,6.79,0,0,0,2.07-3.78l1.12.23a9,9,0,0,1-.69,2.06h2.18a16.84,16.84,0,0,0,1.05-2.27l1,.45a13,13,0,0,1-.81,1.82h2.57l-.09,1.1H383.6v1.76H386v1.09H383.6v1.86H386v1.09H383.6v1.87h2.83v1.09h-6.79a.37.37,0,0,1-.42-.42v-7.73l-.73.76-.67-.6v6.51a.34.34,0,0,1-.38.37Zm1.23-9a.17.17,0,0,0-.19-.19h-.85a.17.17,0,0,0-.19.19v7.86h1a.21.21,0,0,0,.23-.23Zm5.73,3.06v-1.76h-1.92a.14.14,0,0,0-.16.15v1.61Zm0,3v-1.86h-2.08v1.86Zm0,3v-1.87h-2.08V203c0,.12.06.18.16.18Z" transform="translate(-131.64 -129.87)"/><path class="cls-2" d="M405.58,198.72c-.62-.54-1.35-1.12-2.25-1.76a5.74,5.74,0,0,1-3.11,2.34l-.62-1a4.53,4.53,0,0,0,3-2.06H400v-1h2.88V194H401.5a5.92,5.92,0,0,1-.84,1.06,3.56,3.56,0,0,0-.77-.78,5.53,5.53,0,0,0,1.29-2.2l1.07.44-.2.43h4.07V194h-2.23v1.17h2.5v1H404c.77.5,1.5,1,2.23,1.57Zm-3.07,5.34v.6h-1.1v-5.49c0-.12,0-.16.17-.16h8.83c.15,0,.23.06.23.21v5.44h-1.1v-.6Zm0-3.05h7v-.83c0-.08-.05-.13-.16-.13h-6.72q-.17,0-.15.15Zm7,1h-7v1h7Zm2.21-3.91a.14.14,0,0,1-.15.16h-4.49c-.1,0-.15-.05-.15-.16V193c0-.09.05-.14.15-.14h4.49a.13.13,0,0,1,.15.14Zm-1.15-4.22h-2.51s0,0,0,0v3.26l0,0h2.51l0,0V194Z" transform="translate(-131.64 -129.87)"/><path class="cls-2" d="M428.85,198.72v6h-1.13v-5.58a13.37,13.37,0,0,1-1.33,2.34l-1.08-.42a12.8,12.8,0,0,0,2.2-4.11h-2v-1.15h2.21v-1.88l-1.94.13-.13-1.15a25.43,25.43,0,0,0,4.85-.65l.19,1.13-1.84.4v2h1.91v1.15h-1.91v.18a32.21,32.21,0,0,1,2.23,2.8l-.9.7Zm6.58,2.61-5.08.87-.28-1.12,5.36-.91v-7.95h1.15V200l1.13-.21.18,1.14-1.31.24v3.51h-1.15Zm-2.09-2.07a20.58,20.58,0,0,0-2.23-2.36l.84-.76c1.1,1.09,1.87,1.91,2.29,2.42Zm.73-3a21.6,21.6,0,0,0-2.39-2.59l.85-.77A34.46,34.46,0,0,1,435,195.5Z" transform="translate(-131.64 -129.87)"/><path class="cls-2" d="M452.83,199v-3.1h-1.57v-1.15h1.57v-2.46H454v2.46h1.26v1.15H454v2.46l.91-.62.7.89c-.39.28-1.07.68-1.61,1v3.77a1.2,1.2,0,0,1-1.16,1.29,6.28,6.28,0,0,1-1.5-.27l.06-1.19.65.24a2.49,2.49,0,0,0,.45.07c.18,0,.35,0,.35-.45v-2.88l-1.15.54-.63-1Zm10,5.72a16.12,16.12,0,0,1-3.58-2.21,11.9,11.9,0,0,1-4.32,2.14l-.71-1.06a13,13,0,0,0,4.19-1.81,18.84,18.84,0,0,1-2.52-3.08l.95-.65a18,18,0,0,0,2.37,3,10.38,10.38,0,0,0,2.23-3.34c0-.1-.08-.14-.18-.13h-5.42v-1.15h2.62V194.6h-3.15v-1.15h3.15v-1.23h1.14v1.23h3.6v1.15h-3.6v1.81h2.91l.48.39a11.3,11.3,0,0,1-2.92,5,16.18,16.18,0,0,0,3.55,1.88Z" transform="translate(-131.64 -129.87)"/><path class="cls-3" d="M140,196.38c-1.38,1-.46,4.64,2,8.19s5.65,5.64,7,4.67.47-4.64-2-8.19S141.37,195.41,140,196.38Z" transform="translate(-131.64 -129.87)"/><path class="cls-4" d="M168.7,209.59c-4.19-1.13-8.06-.24-8.66,2s2.33,4.91,6.51,6,8.06.23,8.66-2S172.89,210.71,168.7,209.59Z" transform="translate(-131.64 -129.87)"/><path class="cls-5" d="M166.23,219.74c-4.19-1.13-7.78-1.31-8-.41s3,2.53,7.15,3.65,7.77,1.31,8,.41S170.41,220.86,166.23,219.74Z" transform="translate(-131.64 -129.87)"/><path class="cls-6" d="M191.45,213.18c4.15-1.28,6.81-4.6,5.94-7.41s-4.94-4.05-9.09-2.77-6.81,4.61-5.94,7.42S187.3,214.46,191.45,213.18Z" transform="translate(-131.64 -129.87)"/><path class="cls-7" d="M192.43,215.66c-4.15,1.29-7.11,3.63-6.62,5.24s4.27,1.87,8.42.59,7.11-3.63,6.61-5.24S196.58,214.38,192.43,215.66Z" transform="translate(-131.64 -129.87)"/><path class="cls-8" d="M215,193.36c-1.92-1.25-5.39.69-7.75,4.32s-2.72,7.6-.8,8.85,5.4-.69,7.76-4.33S216.91,194.61,215,193.36Z" transform="translate(-131.64 -129.87)"/><path class="cls-9" d="M221.82,197.51c-.78-.51-3.33,2-5.69,5.66s-3.64,7-2.86,7.5,3.32-2,5.68-5.66S222.59,198,221.82,197.51Z" transform="translate(-131.64 -129.87)"/><path class="cls-10" d="M223.51,169.18c-1.68,0-3.1,3.47-3.16,7.82s1.26,7.88,2.94,7.9,3.1-3.47,3.16-7.82S225.19,169.2,223.51,169.18Z" transform="translate(-131.64 -129.87)"/><path class="cls-11" d="M222.05,155.63c.72-.58-.91-3.78-3.64-7.15s-5.52-5.63-6.24-5,.9,3.78,3.63,7.15S221.32,156.22,222.05,155.63Z" transform="translate(-131.64 -129.87)"/><path class="cls-8" d="M169.92,148.31c-4.52,1.74-7,6.25-5.51,10.09s6.33,5.54,10.85,3.81,7-6.25,5.51-10.09S174.44,146.58,169.92,148.31Z" transform="translate(-131.64 -129.87)"/><path class="cls-12" d="M188.1,151.16c4.11,1.4,8.22.27,9.17-2.51s-1.62-6.18-5.73-7.58-8.22-.28-9.17,2.51S184,149.76,188.1,151.16Z" transform="translate(-131.64 -129.87)"/><path class="cls-12" d="M192.21,138.49c4.11,1.4,7.89,1.24,8.43-.35s-2.35-4-6.47-5.42-7.88-1.25-8.42.35S188.1,137.09,192.21,138.49Z" transform="translate(-131.64 -129.87)"/><path class="cls-8" d="M166.68,136.58c-4,1.56-6.66,4.55-5.84,6.69s4.77,2.61,8.82,1.06,6.66-4.55,5.84-6.69S170.73,135,166.68,136.58Z" transform="translate(-131.64 -129.87)"/><path class="cls-13" d="M165.69,134.66c4.05-1.55,7.06-3.52,6.73-4.38s-3.89-.31-7.93,1.24-7.06,3.52-6.73,4.38S161.64,136.21,165.69,134.66Z" transform="translate(-131.64 -129.87)"/><path class="cls-8" d="M148.69,164.28c2.36,1.76,6.37.37,9-3.11s2.8-7.72.44-9.48-6.37-.38-9,3.1S146.33,162.52,148.69,164.28Z" transform="translate(-131.64 -129.87)"/><path class="cls-14" d="M139.74,157.83c1.34,1,4.55-1,7.15-4.48s3.62-7.11,2.27-8.12-4.55,1-7.15,4.47S138.39,156.82,139.74,157.83Z" transform="translate(-131.64 -129.87)"/><path class="cls-15" d="M141.74,184.66c2.29-.12,4-3.72,3.73-8s-2.26-7.74-4.55-7.62-4,3.72-3.73,8S139.45,184.78,141.74,184.66Z" transform="translate(-131.64 -129.87)"/><path class="cls-16" d="M133,169.64c-.93.05-1.49,3.6-1.27,7.93s1.17,7.8,2.09,7.75,1.5-3.6,1.27-7.93S133.89,169.59,133,169.64Z" transform="translate(-131.64 -129.87)"/><path class="cls-12" d="M204.13,184s-1.8-1.54-1.8-1.54a9.19,9.19,0,0,1-1.65-5.28,9.05,9.05,0,0,1,1.31-5.45c0-.07.11-.13.17-.2l.06-.08.17-.17c1-.84,2.75-.44,3.9.87a4.26,4.26,0,0,1,.8,2,7.08,7.08,0,0,1,0,1.54h0v0a.69.69,0,0,0,0,.13h0A7.84,7.84,0,0,0,207,177v.09c0,.14,0,.29,0,.43a10.54,10.54,0,0,0,.53,3.11l0,.12h0c.86,2.49,2.6,4.2,4.63,4.22,2.95.05,5.38-3.44,5.44-7.79a10.15,10.15,0,0,0-1.4-5.45,6.16,6.16,0,0,0-1.17-1.39l-.21-.17a6.33,6.33,0,0,1-1.47-4.18,5.65,5.65,0,0,1,1.81-4.64h0a6,6,0,0,0,1-.78,1.65,1.65,0,0,0,.36-.51s0,0,0,0c.85-1.8,0-5-2.34-7.86-2.73-3.37-6.38-4.93-8.16-3.49s-1,5.34,1.71,8.71c.14.17.29.31.43.47a11.09,11.09,0,0,0,.81.86c.12.1.25.21.37.33a8.58,8.58,0,0,1,1.93,4.65c.44,3.29-.59,6.13-2.29,6.36H209a1.85,1.85,0,0,1-1.14-.3h0a4.57,4.57,0,0,1-1.37-1.52,3.88,3.88,0,0,1-.21-.63,6.88,6.88,0,0,1,0-1.87h0c0-.08,0-.17,0-.25v-.14a9.23,9.23,0,0,0-.91-4.48,10,10,0,0,0-1.25-2c-3-3.76-8.1-4.72-11.3-2.13s-3.31,7.73-.26,11.49a10,10,0,0,0,2.56,2.24s2.59,1.47,2.73,5.92c.09,3-1.06,5.55-2.73,6.31a2.41,2.41,0,0,1-.91.24,5.16,5.16,0,0,1-2.69-1.55l-.12-.16-.05-.07a5.35,5.35,0,0,1-.92-1.55,5.58,5.58,0,0,1-.29-1v0a5.69,5.69,0,0,1-.08-.82,6.77,6.77,0,0,0,0-.52s0,0,0-.06a10.44,10.44,0,0,0-.49-3.19,10.27,10.27,0,1,0-16.15,11.21l0,0,.23.17a2.91,2.91,0,0,1,1,1.27,3.22,3.22,0,0,1-2,4.1,3.66,3.66,0,0,1-1.16.22,3.33,3.33,0,0,1-.78-.08h0c-1.3-.21-3-1.7-3.59-2.24l0,0,0,0-.14-.13h0a9.92,9.92,0,0,1-3.26-6.82,8.44,8.44,0,0,1,.24-1.56h0a10,10,0,0,0,.36-3.21c-.25-4.84-3.79-8.58-7.89-8.36s-7.23,4.3-7,9.14a9.61,9.61,0,0,0,2.63,6.19l.11.11a7.11,7.11,0,0,0,.9.76,2.62,2.62,0,0,1-2,4.52h0a4,4,0,0,0-2.11.69c-2.4,1.7-2.32,5.95.18,9.5s6.49,5,8.89,3.36c1.73-1.23,2.15-3.77,1.33-6.42a10.26,10.26,0,0,0-.7-1.71s0,0,0-.05a6.49,6.49,0,0,0-1.08-1.69,5.19,5.19,0,0,1-1.6-3.28,5,5,0,0,1,.1-.79,3.38,3.38,0,0,1,.35-.92.08.08,0,0,1,0,0,2.49,2.49,0,0,1,.53-.67,4.13,4.13,0,0,1,.39-.34,2.63,2.63,0,0,1,1-.33c1.75-.26,4.11,1,5.43,3.4,1.49,2.73,1.42,4.26,1,5.67-.11.41-.35.77-.46,1.2-1.06,4,1.86,8.2,6.54,9.45s9.32-.95,10.39-4.92a7.16,7.16,0,0,0-1.95-6.76l-.06-.06-.11-.13-.07-.09a3.93,3.93,0,0,1-.77-1.76c-.35-2.15,1.2-4.25,3.62-5.26a6,6,0,0,1,.6-.19l.06,0,.41-.13.08,0a6,6,0,0,1,.61-.15,7.49,7.49,0,0,1,3.29.19,5.3,5.3,0,0,1,3,2.14,4,4,0,0,1,.59,1.47,3.57,3.57,0,0,1,0,.8c0,.06,0,.12,0,.18a7.18,7.18,0,0,0,3.07,6.43c3.44,2.24,8.38.76,11-3.29C207.06,191,206.74,186.47,204.13,184Z" transform="translate(-131.64 -129.87)"/></svg>